<?xml version="1.0" encoding="utf-8"?>
<!-- Generator: Adobe Illustrator 19.2.1, SVG Export Plug-In . SVG Version: 6.00 Build 0)  -->
<svg version="1.1" id="Capa_1" xmlns="http://www.w3.org/2000/svg" x="0px" y="0px"
     viewBox="0 0 4.5 4.5" style="enable-background:new 0 0 4.5 4.5;" xml:space="preserve">
<style type="text/css">
	.st0{fill:#389583;}
	.st1{fill:#5CDB94;}
</style>
<title>Favicon</title>
<path class="st0" d="M2.2,1C3,1,3.6,1.5,3.6,2.2c0,0.7-0.5,1.3-1.3,1.3C1.6,3.6,1,3,1,2.3c0,0,0-0.1,0-0.1C1,1.6,1.6,1,2.2,1 M2.2,0
	C1,0,0,1,0,2.3s1,2.2,2.3,2.2c1.2,0,2.3-1,2.2-2.2c0,0,0,0,0,0C4.5,1,3.5,0,2.2,0L2.2,0z"/>
<circle class="st1" cx="2.3" cy="2.3" r="0.8"/>
</svg>
