<svg xmlns="http://www.w3.org/2000/svg" viewBox="0 0 122.24 70.94"><defs><style>.cls-1{fill:#8de4af;}.cls-2{fill:#5cdb94;}.cls-3{fill:#389583;}.cls-4{fill:#05396b;}</style></defs><title>Logo sobre claro</title><g id="Capa_2" data-name="Capa 2"><g id="Capa_1-2" data-name="Capa 1"><rect class="cls-1" x="84.89" y="25.35" width="30.7" height="1"/><rect class="cls-2" x="40.12" y="24.1" width="4" height="3.74"/><rect class="cls-2" y="24.1" width="4" height="3.74"/><rect class="cls-2" x="33.43" y="17.25" width="4" height="17.44"/><rect class="cls-2" x="26.75" y="9.77" width="4" height="32.39"/><rect class="cls-2" x="20.06" y="3.27" width="4" height="45.39"/><rect class="cls-2" x="13.37" y="9.77" width="4" height="32.39"/><rect class="cls-2" x="6.69" y="18.24" width="4" height="15.46"/><path class="cls-3" d="M66,14.92A10.94,10.94,0,1,1,55,25.85,10.94,10.94,0,0,1,66,14.92m0-8A18.94,18.94,0,1,0,84.89,25.85,18.94,18.94,0,0,0,66,6.92Z"/><circle class="cls-4" cx="65.96" cy="25.85" r="7.15"/><ellipse class="cls-2" cx="97.99" cy="25.92" rx="4.32" ry="3.04" transform="translate(10.76 77.54) rotate(-45.43)"/><path class="cls-2" d="M96.73,31a3.77,3.77,0,0,1-2.69-1c-1.74-1.71-1.36-4.81.86-7.06s5.31-2.67,7-1,1.36,4.81-.86,7.06a6.71,6.71,0,0,1-3.47,1.92A5.43,5.43,0,0,1,96.73,31Zm2.53-7.49a3.75,3.75,0,0,0-2.5,1.23c-1.22,1.23-1.47,2.79-.89,3.36a1.48,1.48,0,0,0,1.27.25,4,4,0,0,0,2.08-1.19c1.21-1.23,1.47-2.79.89-3.36A1.18,1.18,0,0,0,99.26,23.48Z"/><ellipse class="cls-2" cx="117.04" cy="40.18" rx="4.32" ry="3.3" transform="translate(6.28 95.36) rotate(-45.43)"/><path class="cls-2" d="M116,45.39a4.2,4.2,0,0,1-3-1.15h0c-1.83-1.81-1.54-5.1.66-7.33a6.44,6.44,0,0,1,3.62-1.9,4.37,4.37,0,0,1,3.7,1.12,4.31,4.31,0,0,1,1.17,3.68,6.44,6.44,0,0,1-1.83,3.65A6.24,6.24,0,0,1,116,45.39ZM115,42.29c.75.74,2.34.4,3.46-.75a3.67,3.67,0,0,0,1.08-2.07,1.44,1.44,0,0,0-1.79-1.76,3.73,3.73,0,0,0-2,1.11c-1.13,1.14-1.45,2.73-.7,3.47Z"/><polygon class="cls-2" points="122.19 39.47 118.19 39.47 118.19 8.19 102.95 4.94 102.95 25.37 98.95 25.37 98.95 0 122.19 4.96 122.19 39.47"/><path class="cls-4" d="M25.68,63.62l-1.89,2v5H20.15V53.05h3.64v8l1.6-2.19,4.49-5.81h4.48l-6.27,7.84,6.45,9.81H30.21Z"/><path class="cls-4" d="M49.84,67.06H43.47L42.25,70.7H38.39L45,53.05h3.37l6.6,17.65H51.07Zm-5.39-2.94h4.41l-2.22-6.61Z"/><path class="cls-4" d="M64.16,67.78h8.89V70.7H59.61V68.57L68.34,56H59.62v-3H72.86v2.09Z"/><path class="cls-4" d="M92.82,62.28a10.74,10.74,0,0,1-.92,4.57,6.93,6.93,0,0,1-2.64,3,7.28,7.28,0,0,1-3.93,1.06,7.4,7.4,0,0,1-3.92-1,7,7,0,0,1-2.66-3,10.42,10.42,0,0,1-1-4.51V61.5a10.54,10.54,0,0,1,.94-4.59,7,7,0,0,1,2.65-3,7.8,7.8,0,0,1,7.85,0,7,7,0,0,1,2.65,3,10.53,10.53,0,0,1,.94,4.58Zm-3.69-.8a7.45,7.45,0,0,0-1-4.22,3.52,3.52,0,0,0-5.66,0,7.38,7.38,0,0,0-1,4.18v.86a7.52,7.52,0,0,0,1,4.19A3.23,3.23,0,0,0,85.33,68a3.19,3.19,0,0,0,2.81-1.44,7.41,7.41,0,0,0,1-4.18Z"/><path class="cls-4" d="M112.69,62.28a10.74,10.74,0,0,1-.92,4.57,7,7,0,0,1-2.64,3,7.28,7.28,0,0,1-3.93,1.06,7.4,7.4,0,0,1-3.92-1,7,7,0,0,1-2.66-3,10.42,10.42,0,0,1-1-4.51V61.5a10.54,10.54,0,0,1,.94-4.59,7,7,0,0,1,2.65-3,7.78,7.78,0,0,1,7.84,0,7,7,0,0,1,2.66,3,10.53,10.53,0,0,1,.94,4.58Zm-3.69-.8a7.45,7.45,0,0,0-1-4.22,3.52,3.52,0,0,0-5.66,0,7.38,7.38,0,0,0-1,4.18v.86a7.44,7.44,0,0,0,1,4.19,3.48,3.48,0,0,0,5.67,0,7.41,7.41,0,0,0,1-4.18Z"/></g></g></svg>